{"accessors" : [{"bufferView" : 0, "byteOffset" : 0, "componentType" : 5123, "count" : 6, "type" : "SCALAR", "max" : [5], "min" : [0]}, {"bufferView" : 1, "byteOffset" : 0, "componentType" : 5126, "count" : 6, "type" : "VEC3", "max" : [10, 0, 10], "min" : [-10, 0, -10], "name" : "POSITION"}, {"bufferView" : 1, "byteOffset" : 12, "componentType" : 5126, "count" : 6, "type" : "VEC3", "max" : [0, 1.0000044107437134, -0], "min" : [0, 1.0000044107437134, -0], "name" : "NORMAL"}, {"bufferView" : 1, "byteOffset" : 24, "componentType" : 5126, "count" : 6, "type" : "VEC2", "max" : [0.09403999894857407, 1.4846899509429932], "min" : [0.04405000060796738, 1.4347000122070312], "name" : "TEXCOORD_0"}, {"bufferView" : 0, "byteOffset" : 12, "componentType" : 5123, "count" : 6, "type" : "SCALAR", "max" : [5], "min" : [0]}, {"bufferView" : 2, "byteOffset" : 0, "componentType" : 5126, "count" : 6, "type" : "VEC3", "max" : [10, 0, 10], "min" : [-10, 0, -10], "name" : "POSITION"}, {"bufferView" : 2, "byteOffset" : 12, "componentType" : 5126, "count" : 6, "type" : "VEC3", "max" : [0, 1.0000044107437134, -0], "min" : [0, 1.0000044107437134, -0], "name" : "NORMAL"}, {"bufferView" : 2, "byteOffset" : 24, "componentType" : 5126, "count" : 6, "type" : "VEC2", "max" : [0.09403999894857407, 1.4846899509429932], "min" : [0.04405000060796738, 1.4347000122070312], "name" : "TEXCOORD_0"}, {"bufferView" : 0, "byteOffset" : 24, "componentType" : 5123, "count" : 36, "type" : "SCALAR", "max" : [35], "min" : [0]}, {"bufferView" : 3, "byteOffset" : 0, "componentType" : 5126, "count" : 36, "type" : "VEC3", "max" : [0.5, 1.2000000476837158, 3.5], "min" : [-0.5, -9.999999974752427E-07, -3.5], "name" : "POSITION"}, {"bufferView" : 3, "byteOffset" : 12, "componentType" : 5126, "count" : 36, "type" : "VEC3", "max" : [1.0000044107437134, 1.0000044107437134, 1.0000044107437134], "min" : [-1.0000044107437134, -1.0000044107437134, -1.0000044107437134], "name" : "NORMAL"}, {"bufferView" : 3, "byteOffset" : 24, "componentType" : 5126, "count" : 36, "type" : "VEC2", "max" : [0.5223429799079895, 1.857010006904602], "min" : [0.4973430037498474, 1.83201003074646], "name" : "TEXCOORD_0"}, {"bufferView" : 0, "byteOffset" : 96, "componentType" : 5123, "count" : 36, "type" : "SCALAR", "max" : [35], "min" : [0]}, {"bufferView" : 4, "byteOffset" : 0, "componentType" : 5126, "count" : 36, "type" : "VEC3", "max" : [0.5, 1.2000000476837158, 3.5], "min" : [-0.5, -9.999999974752427E-07, -3.5], "name" : "POSITION"}, {"bufferView" : 4, "byteOffset" : 12, "componentType" : 5126, "count" : 36, "type" : "VEC3", "max" : [1.0000044107437134, 1.0000044107437134, 1.0000044107437134], "min" : [-1.0000044107437134, -1.0000044107437134, -1.0000044107437134], "name" : "NORMAL"}, {"bufferView" : 4, "byteOffset" : 24, "componentType" : 5126, "count" : 36, "type" : "VEC2", "max" : [0.5223429799079895, 1.857010006904602], "min" : [0.4973430037498474, 1.83201003074646], "name" : "TEXCOORD_0"}, {"bufferView" : 0, "byteOffset" : 168, "componentType" : 5123, "count" : 36, "type" : "SCALAR", "max" : [35], "min" : [0]}, {"bufferView" : 5, "byteOffset" : 0, "componentType" : 5126, "count" : 36, "type" : "VEC3", "max" : [0.5, 1.2000000476837158, 3.5], "min" : [-0.5, -9.999999974752427E-07, -3.5], "name" : "POSITION"}, {"bufferView" : 5, "byteOffset" : 12, "componentType" : 5126, "count" : 36, "type" : "VEC3", "max" : [1.0000044107437134, 1.0000044107437134, 1.0000044107437134], "min" : [-1.0000044107437134, -1.0000044107437134, -1.0000044107437134], "name" : "NORMAL"}, {"bufferView" : 5, "byteOffset" : 24, "componentType" : 5126, "count" : 36, "type" : "VEC2", "max" : [0.5223429799079895, 1.857010006904602], "min" : [0.4973430037498474, 1.83201003074646], "name" : "TEXCOORD_0"}, {"bufferView" : 0, "byteOffset" : 240, "componentType" : 5123, "count" : 4704, "type" : "SCALAR", "max" : [4703], "min" : [0]}, {"bufferView" : 6, "byteOffset" : 0, "componentType" : 5126, "count" : 4704, "type" : "VEC3", "max" : [8.704469680786133, 9.548270225524902, 7.023990154266357], "min" : [-8.550530433654785, -0.06255099922418594, -7.383769989013672], "name" : "POSITION"}, {"bufferView" : 6, "byteOffset" : 12, "componentType" : 5126, "count" : 4704, "type" : "VEC3", "max" : [1.0000044107437134, 1.0000044107437134, 1.0000044107437134], "min" : [-1.0000044107437134, -1.0000044107437134, -1.0000044107437134], "name" : "NORMAL"}, {"bufferView" : 6, "byteOffset" : 24, "componentType" : 5126, "count" : 4704, "type" : "VEC2", "max" : [0.9859690070152283, 1.963944911956787], "min" : [0.01749200001358986, 1.030791997909546], "name" : "TEXCOORD_0"}, {"bufferView" : 0, "byteOffset" : 9648, "componentType" : 5123, "count" : 6, "type" : "SCALAR", "max" : [5], "min" : [0]}, {"bufferView" : 7, "byteOffset" : 0, "componentType" : 5126, "count" : 6, "type" : "VEC3", "max" : [10, 0, 10], "min" : [-10, 0, -10], "name" : "POSITION"}, {"bufferView" : 7, "byteOffset" : 12, "componentType" : 5126, "count" : 6, "type" : "VEC3", "max" : [0, 1.0000044107437134, -0], "min" : [0, 1.0000044107437134, -0], "name" : "NORMAL"}, {"bufferView" : 7, "byteOffset" : 24, "componentType" : 5126, "count" : 6, "type" : "VEC2", "max" : [0.9065409898757935, 1.9339089393615723], "min" : [0.8565499782562256, 1.8839190006256104], "name" : "TEXCOORD_0"}, {"bufferView" : 0, "byteOffset" : 9660, "componentType" : 5123, "count" : 660, "type" : "SCALAR", "max" : [659], "min" : [0]}, {"bufferView" : 8, "byteOffset" : 0, "componentType" : 5126, "count" : 660, "type" : "VEC3", "max" : [4.312550067901611, 5.1598100662231445, 1.247230052947998], "min" : [-4.330629825592041, -0.0004949999856762588, -0.33651700615882874], "name" : "POSITION"}, {"bufferView" : 8, "byteOffset" : 12, "componentType" : 5126, "count" : 660, "type" : "VEC3", "max" : [1.0000044107437134, 1.0000044107437134, 1.0000044107437134], "min" : [-1.0000044107437134, -1.0000044107437134, -1.0000044107437134], "name" : "NORMAL"}, {"bufferView" : 8, "byteOffset" : 24, "componentType" : 5126, "count" : 660, "type" : "VEC2", "max" : [0.9982089996337891, 1.9965429306030273], "min" : [0.001044000033289194, 1.2441439628601074], "name" : "TEXCOORD_0"}, {"bufferView" : 0, "byteOffset" : 10980, "componentType" : 5123, "count" : 987, "type" : "SCALAR", "max" : [350], "min" : [0]}, {"bufferView" : 9, "byteOffset" : 0, "componentType" : 5126, "count" : 351, "type" : "VEC3", "max" : [1.9500000476837158, 0, 0.8090000152587891], "min" : [-1.902999997138977, 0, -0.8910000324249268], "name" : "POSITION"}, {"bufferView" : 9, "byteOffset" : 12, "componentType" : 5126, "count" : 351, "type" : "VEC3", "max" : [0, 1.0000044107437134, -0], "min" : [0, 1.0000044107437134, -0], "name" : "NORMAL"}, {"bufferView" : 9, "byteOffset" : 24, "componentType" : 5126, "count" : 351, "type" : "VEC2", "max" : [1, 2], "min" : [0, 2], "name" : "TEXCOORD_0"}, {"bufferView" : 0, "byteOffset" : 12956, "componentType" : 5123, "count" : 987, "type" : "SCALAR", "max" : [350], "min" : [0]}, {"bufferView" : 10, "byteOffset" : 0, "componentType" : 5126, "count" : 351, "type" : "VEC3", "max" : [1.9500000476837158, 0, 0.8090000152587891], "min" : [-1.902999997138977, 0, -0.8910000324249268], "name" : "POSITION"}, {"bufferView" : 10, "byteOffset" : 12, "componentType" : 5126, "count" : 351, "type" : "VEC3", "max" : [0, 1.0000044107437134, -0], "min" : [0, 1.0000044107437134, -0], "name" : "NORMAL"}, {"bufferView" : 10, "byteOffset" : 24, "componentType" : 5126, "count" : 351, "type" : "VEC2", "max" : [1, 2], "min" : [0, 2], "name" : "TEXCOORD_0"}, {"bufferView" : 0, "byteOffset" : 14932, "componentType" : 5123, "count" : 1863, "type" : "SCALAR", "max" : [1862], "min" : [0]}, {"bufferView" : 11, "byteOffset" : 0, "componentType" : 5126, "count" : 1863, "type" : "VEC3", "max" : [1.4678499698638916, 2.949320077896118, 3.457119941711426], "min" : [-1.4657399654388428, -0.00013899999612476677, -3.351639986038208], "name" : "POSITION"}, {"bufferView" : 11, "byteOffset" : 12, "componentType" : 5126, "count" : 1863, "type" : "VEC3", "max" : [1.0000044107437134, 1.0000044107437134, 1.0000044107437134], "min" : [-1.0000044107437134, -1.0000044107437134, -1.0000044107437134], "name" : "NORMAL"}, {"bufferView" : 11, "byteOffset" : 24, "componentType" : 5126, "count" : 1863, "type" : "VEC2", "max" : [0.9754059910774231, 1.9893810749053955], "min" : [0, 1], "name" : "TEXCOORD_0"}, {"bufferView" : 0, "byteOffset" : 18660, "componentType" : 5123, "count" : 1839, "type" : "SCALAR", "max" : [1838], "min" : [0]}, {"bufferView" : 12, "byteOffset" : 0, "componentType" : 5126, "count" : 1839, "type" : "VEC3", "max" : [1.641129970550537, 2.266239881515503, 2.9579999446868896], "min" : [-1.4596400260925293, -0.008671999908983707, -2.774240016937256], "name" : "POSITION"}, {"bufferView" : 12, "byteOffset" : 12, "componentType" : 5126, "count" : 1839, "type" : "VEC3", "max" : [1.0000044107437134, 1.0000044107437134, 1.0000044107437134], "min" : [-1.0000044107437134, -1.0000044107437134, -1.0000044107437134], "name" : "NORMAL"}, {"bufferView" : 12, "byteOffset" : 24, "componentType" : 5126, "count" : 1839, "type" : "VEC2", "max" : [0.9323769807815552, 1.9465360641479492], "min" : [0.006965000182390213, 1.031019926071167], "name" : "TEXCOORD_0"}, {"bufferView" : 0, "byteOffset" : 22340, "componentType" : 5123, "count" : 2457, "type" : "SCALAR", "max" : [838], "min" : [0]}, {"bufferView" : 13, "byteOffset" : 0, "componentType" : 5126, "count" : 839, "type" : "VEC3", "max" : [5.130000591278076, 0, 0.009000000543892384], "min" : [0.04800000041723251, 0, -0.6914074420928955], "name" : "POSITION"}, {"bufferView" : 13, "byteOffset" : 12, "componentType" : 5126, "count" : 839, "type" : "VEC3", "max" : [0, 1.0000044107437134, -0], "min" : [0, 1.0000044107437134, -0], "name" : "NORMAL"}, {"bufferView" : 13, "byteOffset" : 24, "componentType" : 5126, "count" : 839, "type" : "VEC2", "max" : [1, 2], "min" : [0, 2], "name" : "TEXCOORD_0"}, {"bufferView" : 0, "byteOffset" : 27256, "componentType" : 5123, "count" : 2457, "type" : "SCALAR", "max" : [838], "min" : [0]}, {"bufferView" : 14, "byteOffset" : 0, "componentType" : 5126, "count" : 839, "type" : "VEC3", "max" : [5.130000591278076, 0, 0.009000000543892384], "min" : [0.04800000041723251, 0, -0.6914074420928955], "name" : "POSITION"}, {"bufferView" : 14, "byteOffset" : 12, "componentType" : 5126, "count" : 839, "type" : "VEC3", "max" : [0, 1.0000044107437134, -0], "min" : [0, 1.0000044107437134, -0], "name" : "NORMAL"}, {"bufferView" : 14, "byteOffset" : 24, "componentType" : 5126, "count" : 839, "type" : "VEC2", "max" : [1, 2], "min" : [0, 2], "name" : "TEXCOORD_0"}], "asset" : {"generator" : "Aspose.3D 24.4.1", "version" : "2.0"}, "buffers" : [{"uri" : "data:application/octet-stream;base64,", "byteLength" : 402536}], "bufferViews" : [{"buffer" : 0, "byteOffset" : 0, "byteLength" : 32172, "target" : 34963}, {"buffer" : 0, "byteOffset" : 32176, "byteLength" : 192, "byteStride" : 32, "target" : 34962}, {"buffer" : 0, "byteOffset" : 32372, "byteLength" : 192, "byteStride" : 32, "target" : 34962}, {"buffer" : 0, "byteOffset" : 32568, "byteLength" : 1152, "byteStride" : 32, "target" : 34962}, {"buffer" : 0, "byteOffset" : 33724, "byteLength" : 1152, "byteStride" : 32, "target" : 34962}, {"buffer" : 0, "byteOffset" : 34880, "byteLength" : 1152, "byteStride" : 32, "target" : 34962}, {"buffer" : 0, "byteOffset" : 36036, "byteLength" : 150528, "byteStride" : 32, "target" : 34962}, {"buffer" : 0, "byteOffset" : 186568, "byteLength" : 192, "byteStride" : 32, "target" : 34962}, {"buffer" : 0, "byteOffset" : 186764, "byteLength" : 21120, "byteStride" : 32, "target" : 34962}, {"buffer" : 0, "byteOffset" : 207888, "byteLength" : 11232, "byteStride" : 32, "target" : 34962}, {"buffer" : 0, "byteOffset" : 219124, "byteLength" : 11232, "byteStride" : 32, "target" : 34962}, {"buffer" : 0, "byteOffset" : 230360, "byteLength" : 59616, "byteStride" : 32, "target" : 34962}, {"buffer" : 0, "byteOffset" : 289980, "byteLength" : 58848, "byteStride" : 32, "target" : 34962}, {"buffer" : 0, "byteOffset" : 348832, "byteLength" : 26848, "byteStride" : 32, "target" : 34962}, {"buffer" : 0, "byteOffset" : 375684, "byteLength" : 26848, "byteStride" : 32, "target" : 34962}], "images" : [{"uri" : "data:image/png;base64,"}, {"uri" : "data:image/png;base64,"}, {"uri" : "data:image/png;base64,"}, {"uri" : "data:image/png;base64,"}, {"uri" : "data:image/png;base64,"}, {"uri" : "data:image/png;base64,"}, {"uri" : "data:image/png;base64,"}], "materials" : [{"name" : "DefaultMaterial", "pbrMetallicRoughness" : {"baseColorFactor" : [1, 1, 1, 1], "baseColorTexture" : {"index" : 0, "texCoord" : 0}, "metallicFactor" : 0.5, "roughnessFactor" : 0.5}, "emissiveFactor" : [0, 0, 0], "alphaMode" : "OPAQUE", "doubleSided" : false}, {"name" : "DefaultMaterial", "pbrMetallicRoughness" : {"baseColorFactor" : [1, 1, 1, 1], "baseColorTexture" : {"index" : 0, "texCoord" : 0}, "metallicFactor" : 0.5, "roughnessFactor" : 0.5}, "emissiveFactor" : [0, 0, 0], "alphaMode" : "OPAQUE", "doubleSided" : false}, {"name" : "Natures.007", "pbrMetallicRoughness" : {"baseColorFactor" : [1, 1, 1, 1], "baseColorTexture" : {"index" : 1, "texCoord" : 0}, "metallicFactor" : 0.5, "roughnessFactor" : 0.5}, "emissiveFactor" : [0, 0, 0], "alphaMode" : "OPAQUE", "doubleSided" : false}, {"name" : "Natures.007", "pbrMetallicRoughness" : {"baseColorFactor" : [1, 1, 1, 1], "baseColorTexture" : {"index" : 1, "texCoord" : 0}, "metallicFactor" : 0.5, "roughnessFactor" : 0.5}, "emissiveFactor" : [0, 0, 0], "alphaMode" : "OPAQUE", "doubleSided" : false}, {"name" : "Natures.007", "pbrMetallicRoughness" : {"baseColorFactor" : [1, 1, 1, 1], "baseColorTexture" : {"index" : 1, "texCoord" : 0}, "metallicFactor" : 0.5, "roughnessFactor" : 0.5}, "emissiveFactor" : [0, 0, 0], "alphaMode" : "OPAQUE", "doubleSided" : false}, {"name" : "Building_House_03_color01", "pbrMetallicRoughness" : {"baseColorFactor" : [1, 1, 1, 1], "baseColorTexture" : {"index" : 2, "texCoord" : 0}, "metallicFactor" : 0.5, "roughnessFactor" : 0.5}, "emissiveFactor" : [0, 0, 0], "alphaMode" : "OPAQUE", "doubleSided" : false}, {"name" : "DefaultMaterial.001", "pbrMetallicRoughness" : {"baseColorFactor" : [1, 1, 1, 1], "baseColorTexture" : {"index" : 3, "texCoord" : 0}, "metallicFactor" : 0.5, "roughnessFactor" : 0.5}, "emissiveFactor" : [0, 0, 0], "alphaMode" : "OPAQUE", "doubleSided" : false}, {"name" : "Props_BillBoard_large", "pbrMetallicRoughness" : {"baseColorFactor" : [1, 1, 1, 1], "baseColorTexture" : {"index" : 4, "texCoord" : 0}, "metallicFactor" : 0.5, "roughnessFactor" : 0.5}, "emissiveFactor" : [0, 0, 0], "alphaMode" : "OPAQUE", "doubleSided" : false}, {"name" : "Material.004", "pbrMetallicRoughness" : {"baseColorFactor" : [0.25818291306495667, 0.015208516269922256, 0.012983035296201706, 1], "metallicFactor" : 0, "roughnessFactor" : 0.5}, "emissiveFactor" : [0, 0, 0], "alphaMode" : "OPAQUE", "doubleSided" : true}, {"name" : "Material.004", "pbrMetallicRoughness" : {"baseColorFactor" : [0.25818291306495667, 0.015208516269922256, 0.012983035296201706, 1], "metallicFactor" : 0, "roughnessFactor" : 0.5}, "emissiveFactor" : [0, 0, 0], "alphaMode" : "OPAQUE", "doubleSided" : true}, {"name" : "Ambulance.002", "pbrMetallicRoughness" : {"baseColorFactor" : [1, 1, 1, 1], "baseColorTexture" : {"index" : 5, "texCoord" : 0}, "metallicFactor" : 0.5, "roughnessFactor" : 0.5}, "emissiveFactor" : [0, 0, 0], "alphaMode" : "OPAQUE", "doubleSided" : false}, {"name" : "SUV1.001", "pbrMetallicRoughness" : {"baseColorFactor" : [1, 1, 1, 1], "baseColorTexture" : {"index" : 6, "texCoord" : 0}, "metallicFactor" : 0.5, "roughnessFactor" : 0.5}, "emissiveFactor" : [0, 0, 0], "alphaMode" : "OPAQUE", "doubleSided" : false}, {"name" : "Material.001", "pbrMetallicRoughness" : {"baseColorFactor" : [1, 0.907683789730072, 0.9171925783157349, 1], "metallicFactor" : 0, "roughnessFactor" : 0.5}, "emissiveFactor" : [0, 0, 0], "alphaMode" : "OPAQUE", "doubleSided" : true}, {"name" : "Material.001", "pbrMetallicRoughness" : {"baseColorFactor" : [1, 0.907683789730072, 0.9171925783157349, 1], "metallicFactor" : 0, "roughnessFactor" : 0.5}, "emissiveFactor" : [0, 0, 0], "alphaMode" : "OPAQUE", "doubleSided" : true}], "meshes" : [{"primitives" : [{"attributes" : {"POSITION" : 1, "NORMAL" : 2, "TEXCOORD_0" : 3}, "indices" : 0, "material" : 0, "mode" : 4}]}, {"primitives" : [{"attributes" : {"POSITION" : 5, "NORMAL" : 6, "TEXCOORD_0" : 7}, "indices" : 4, "material" : 1, "mode" : 4}]}, {"primitives" : [{"attributes" : {"POSITION" : 9, "NORMAL" : 10, "TEXCOORD_0" : 11}, "indices" : 8, "material" : 2, "mode" : 4}]}, {"primitives" : [{"attributes" : {"POSITION" : 13, "NORMAL" : 14, "TEXCOORD_0" : 15}, "indices" : 12, "material" : 3, "mode" : 4}]}, {"primitives" : [{"attributes" : {"POSITION" : 17, "NORMAL" : 18, "TEXCOORD_0" : 19}, "indices" : 16, "material" : 4, "mode" : 4}]}, {"primitives" : [{"attributes" : {"POSITION" : 21, "NORMAL" : 22, "TEXCOORD_0" : 23}, "indices" : 20, "material" : 5, "mode" : 4}]}, {"primitives" : [{"attributes" : {"POSITION" : 25, "NORMAL" : 26, "TEXCOORD_0" : 27}, "indices" : 24, "material" : 6, "mode" : 4}]}, {"primitives" : [{"attributes" : {"POSITION" : 29, "NORMAL" : 30, "TEXCOORD_0" : 31}, "indices" : 28, "material" : 7, "mode" : 4}]}, {"primitives" : [{"attributes" : {"POSITION" : 33, "NORMAL" : 34, "TEXCOORD_0" : 35}, "indices" : 32, "material" : 8, "mode" : 4}]}, {"primitives" : [{"attributes" : {"POSITION" : 37, "NORMAL" : 38, "TEXCOORD_0" : 39}, "indices" : 36, "material" : 9, "mode" : 4}]}, {"primitives" : [{"attributes" : {"POSITION" : 41, "NORMAL" : 42, "TEXCOORD_0" : 43}, "indices" : 40, "material" : 10, "mode" : 4}]}, {"primitives" : [{"attributes" : {"POSITION" : 45, "NORMAL" : 46, "TEXCOORD_0" : 47}, "indices" : 44, "material" : 11, "mode" : 4}]}, {"primitives" : [{"attributes" : {"POSITION" : 49, "NORMAL" : 50, "TEXCOORD_0" : 51}, "indices" : 48, "material" : 12, "mode" : 4}]}, {"primitives" : [{"attributes" : {"POSITION" : 53, "NORMAL" : 54, "TEXCOORD_0" : 55}, "indices" : 52, "material" : 13, "mode" : 4}]}], "nodes" : [{"matrix" : [-3.3589708114953724E-08, 0, -0.24999994673938072, 0, 0, 1, 0, 0, 1.4999997102386058, 0, -2.015382526939283E-07, 0, 10.000852584838867, 0.05000000074505806, 17.91237449645996, 1], "mesh" : 0, "name" : "Road Concrete Tile_Plane.010"}, {"matrix" : [0.25, 0, 0, 0, 0, 1, 0, 0, 0, 0, 1, 0, 10, 0.05000000074505806, 20.043392181396484, 1], "mesh" : 1, "name" : "Road Concrete Tile_Plane.001"}, {"children" : [1], "name" : "Road_Concrete_Tile.obj"}, {"matrix" : [-1.3435885648505064E-07, 0, -0.9999999657714511, 0, 0, 1, 0, 0, 5.749998372674418, 0, -7.725632325871552E-07, 0, 10, 0, -9.5, 1], "mesh" : 2, "name" : "Natures_Grass Fence_Cube.2536"}, {"matrix" : [1, 0, 0, 0, 0, 1, 0, 0, 0, 0, 5.75, 0, 29.5, 0, 10, 1], "mesh" : 3, "name" : "Natures_Grass Fence_Cube.001"}, {"matrix" : [1, 0, 0, 0, 0, 1, 0, 0, 0, 0, 5.75, 0, -9.5, 0, 10, 1], "mesh" : 4, "name" : "Natures_Grass Fence_Cube.002"}, {"matrix" : [1, 0, 0, 0, 0, 1, 0, 0, 0, 0, 1, 0, 10, 0.05000000074505806, 5.413205146789551, 1], "mesh" : 5, "name" : "Building_House_03_color01_Cylinder.000"}, {"children" : [6], "name" : "Building_House_03_color01.obj"}, {"matrix" : [2, 0, 0, 0, 0, 1, 0, 0, 0, 0, 2, 0, 10, 0, 10, 1], "mesh" : 6, "name" : "Natures_Grass Tile_Plane.010"}, {"children" : [8], "name" : "Natures_Grass_Tile.obj"}, {"matrix" : [2.0278890887797165, 0, -0.0735246953592009, 0, 0, 2.0292208194732666, 0, 0, 0.0735246953592009, 0, 2.0278890887797165, 0, -6.9831953048706055, 1.2672524452209473, 3.918781280517578, 1], "mesh" : 7, "name" : "Props_BillBoard_large_Cube.528"}, {"children" : [10], "matrix" : [1, 0, 0, 0, 0, 1, 0, 0, 0, 0, 1, 0, 17.18456268310547, 7.355342388153076, 0, 1], "name" : "Props_BillBoard_large.obj"}, {"matrix" : [2.5657095909118652, 0, 0, 0, 0, -7.772722200287803E-07, 2.5657097415098655, 0, 0, -2.5657097415098655, -7.772722200287803E-07, 0, 10.074965476989746, 16.533222198486328, 4.436273097991943, 1], "mesh" : 8, "name" : "Text"}, {"matrix" : [-2.444516897201538, 0, 0, 0, 0, 7.40557345644066E-07, 2.444517051947791, 0, 0, -2.444517051947791, 7.40557345644066E-07, 0, 10.017592430114746, 16.68343734741211, 3.3191609382629395, 1], "mesh" : 9, "name" : "Text.001"}, {"matrix" : [1.075347066735958, 0, 0.013652692231360453, 0, 0, 1.0754338502883911, 0, 0, -0.013652692231360453, 0, 1.075347066735958, 0, -18.821685791015625, 0, -92.3319091796875, 1], "mesh" : 10, "name" : "Vehicle_Ambulance_Cube.035"}, {"children" : [14], "matrix" : [-1.3435885648505064E-07, 0, 0.9999999657714511, 0, 0, 1, 0, 0, -0.9999999657714511, 0, -1.3435885648505064E-07, 0, -72.12744140625, 0, 36.55318832397461, 1], "name" : "Vehicle_Ambulance.obj"}, {"matrix" : [-1.3435885648505064E-07, 0, -1.0000001343588565, 0, 0, 1, 0, 0, 1.0000001343588565, 0, -1.3435885648505064E-07, 0, -69.22026824951172, 0, -22.73965072631836, 1], "mesh" : 11, "name" : "Vehicle_SUV_Cube.004"}, {"children" : [16], "matrix" : [1, 0, 0, 0, 0, 1, 0, 0, 0, 0, 1, 0, 70.60078430175781, 0, 40.985443115234375, 1], "name" : "Vehicle_SUV.obj.004"}, {"matrix" : [0.4924035668373108, 0, 0, 0, 0, -6.615878016942128E-08, 0.49240363299609097, 0, 0, -0.49240363299609097, -6.615878016942128E-08, 0, 0.1627482771873474, 0.7843588590621948, 19.4960994720459, 1], "mesh" : 12, "name" : "Text.002"}, {"matrix" : [0.39301830530166626, 0, 0, 0, 0, -5.280549007802439E-08, 0.39301835810715635, 0, 0, -0.39301835810715635, -5.280549007802439E-08, 0, 20.3051700592041, 1.2019016742706299, 19.399120330810547, 1], "mesh" : 13, "name" : "Text.003"}], "samplers" : [{"magFilter" : 9729, "minFilter" : 9987, "wrapS" : 10497, "wrapT" : 10497}, {"magFilter" : 9729, "minFilter" : 9987, "wrapS" : 10497, "wrapT" : 10497}, {"magFilter" : 9729, "minFilter" : 9987, "wrapS" : 10497, "wrapT" : 10497}, {"magFilter" : 9729, "minFilter" : 9987, "wrapS" : 10497, "wrapT" : 10497}, {"magFilter" : 9729, "minFilter" : 9987, "wrapS" : 10497, "wrapT" : 10497}, {"magFilter" : 9729, "minFilter" : 9987, "wrapS" : 10497, "wrapT" : 10497}, {"magFilter" : 9729, "minFilter" : 9987, "wrapS" : 10497, "wrapT" : 10497}], "scene" : 0, "scenes" : [{"nodes" : [0, 2, 3, 4, 5, 7, 9, 11, 12, 13, 15, 17, 18, 19]}], "textures" : [{"sampler" : 0, "source" : 0, "name" : ""}, {"sampler" : 1, "source" : 1, "name" : ""}, {"sampler" : 2, "source" : 2, "name" : ""}, {"sampler" : 3, "source" : 3, "name" : ""}, {"sampler" : 4, "source" : 4, "name" : ""}, {"sampler" : 5, "source" : 5, "name" : ""}, {"sampler" : 6, "source" : 6, "name" : ""}]}